<svg 
 width="512" 
 height="512" 
 viewBox="0 0 512 512" 
 fill="none" xmlns="http://www.w3.org/2000/svg">

 <path 
  d="M256 512C397.385 512 512 397.385 512 256C512 114.615 397.385 0 256 0C114.615 0 0 114.615 0 256C0 397.385 114.615 512 256 512Z" 
  fill="#CD2426"/>
 <path 
  d="M236 237.44H277.92C278.56 214.88 280.32 202.24 300.96 184.8C312.64 175.04 327.2 171.36 341.6 170.88V278.72C341.6 369.12 267.68 443.04 177.28 443.04C174.88 443.04 172.64 443.04 170.4 442.88V382.88C170.4 382.88 199.52 380.64 226.88 364.48C248.32 352 268.64 330.08 273.44 299.36C274.741 290.488 275.755 281.577 276.48 272.64H234.72C233.44 304.96 229.92 324.16 195.2 337.6C186.4 340.96 178.08 343.04 170.4 344V233.28C170.4 142.88 244.32 68.96 334.72 68.96C337.12 68.96 339.36 68.96 341.6 69.12V130.4C341.6 130.4 308.64 131.68 279.68 149.92C260 162.24 241.92 183.68 238.24 212.64C237.12 221.44 236.48 229.76 236 237.44Z" 
  fill="#FEFEFE"/>
</svg>